<svg xmlns="http://www.w3.org/2000/svg" role="img" viewBox="9.26 9.76 70.85 70.85"><defs><clipPath id="4233404e0c"><path d="M 10.632812 11.113281 L 78.851562 11.113281 L 78.851562 79.328125 L 10.632812 79.328125 Z M 10.632812 11.113281"/></clipPath></defs><g clip-path="url(#4233404e0c)"><path fill="#161616" d="M 79.085938 45.335938 C 79.085938 46.457031 79.03125 47.578125 78.921875 48.691406 C 78.8125 49.808594 78.648438 50.914062 78.429688 52.015625 C 78.210938 53.113281 77.9375 54.199219 77.613281 55.273438 C 77.285156 56.34375 76.910156 57.398438 76.480469 58.433594 C 76.050781 59.472656 75.574219 60.484375 75.042969 61.472656 C 74.515625 62.460938 73.941406 63.421875 73.316406 64.351562 C 72.695312 65.285156 72.027344 66.183594 71.316406 67.050781 C 70.605469 67.917969 69.855469 68.746094 69.0625 69.539062 C 68.269531 70.332031 67.4375 71.085938 66.574219 71.796875 C 65.707031 72.507812 64.804688 73.171875 63.875 73.796875 C 62.941406 74.417969 61.980469 74.996094 60.992188 75.523438 C 60.003906 76.050781 58.992188 76.53125 57.957031 76.960938 C 56.921875 77.386719 55.867188 77.765625 54.792969 78.089844 C 53.722656 78.417969 52.636719 78.6875 51.535156 78.90625 C 50.4375 79.125 49.328125 79.289062 48.214844 79.398438 C 47.097656 79.507812 45.980469 79.5625 44.859375 79.5625 C 43.738281 79.5625 42.621094 79.507812 41.503906 79.398438 C 40.386719 79.289062 39.28125 79.125 38.183594 78.90625 C 37.082031 78.6875 35.996094 78.417969 34.921875 78.089844 C 33.851562 77.765625 32.796875 77.386719 31.761719 76.960938 C 30.726562 76.53125 29.714844 76.050781 28.722656 75.523438 C 27.734375 74.996094 26.777344 74.417969 25.84375 73.796875 C 24.910156 73.171875 24.011719 72.507812 23.144531 71.796875 C 22.277344 71.085938 21.449219 70.332031 20.65625 69.539062 C 19.863281 68.746094 19.113281 67.917969 18.402344 67.050781 C 17.691406 66.183594 17.023438 65.285156 16.398438 64.351562 C 15.777344 63.421875 15.203125 62.460938 14.671875 61.472656 C 14.144531 60.484375 13.667969 59.472656 13.238281 58.433594 C 12.808594 57.398438 12.429688 56.34375 12.105469 55.273438 C 11.78125 54.199219 11.507812 53.113281 11.289062 52.015625 C 11.070312 50.914062 10.90625 49.808594 10.796875 48.691406 C 10.6875 47.578125 10.632812 46.457031 10.632812 45.335938 C 10.632812 44.214844 10.6875 43.097656 10.796875 41.984375 C 10.90625 40.867188 11.070312 39.757812 11.289062 38.660156 C 11.507812 37.5625 11.78125 36.472656 12.105469 35.402344 C 12.429688 34.328125 12.808594 33.273438 13.238281 32.238281 C 13.667969 31.203125 14.144531 30.191406 14.671875 29.203125 C 15.203125 28.214844 15.777344 27.253906 16.398438 26.320312 C 17.023438 25.390625 17.691406 24.492188 18.402344 23.625 C 19.113281 22.757812 19.863281 21.929688 20.65625 21.136719 C 21.449219 20.34375 22.277344 19.589844 23.144531 18.878906 C 24.011719 18.167969 24.910156 17.5 25.84375 16.878906 C 26.777344 16.257812 27.734375 15.679688 28.722656 15.152344 C 29.714844 14.625 30.726562 14.144531 31.761719 13.714844 C 32.796875 13.285156 33.851562 12.910156 34.921875 12.585938 C 35.996094 12.257812 37.082031 11.988281 38.183594 11.769531 C 39.28125 11.550781 40.386719 11.386719 41.503906 11.273438 C 42.621094 11.164062 43.738281 11.109375 44.859375 11.109375 C 45.980469 11.109375 47.097656 11.164062 48.214844 11.273438 C 49.328125 11.386719 50.4375 11.550781 51.535156 11.769531 C 52.636719 11.988281 53.722656 12.257812 54.792969 12.585938 C 55.867188 12.910156 56.921875 13.285156 57.957031 13.714844 C 58.992188 14.144531 60.003906 14.625 60.992188 15.152344 C 61.980469 15.679688 62.941406 16.257812 63.875 16.878906 C 64.804688 17.5 65.707031 18.167969 66.574219 18.878906 C 67.4375 19.589844 68.269531 20.34375 69.0625 21.136719 C 69.855469 21.929688 70.605469 22.757812 71.316406 23.625 C 72.027344 24.492188 72.695312 25.390625 73.316406 26.320312 C 73.941406 27.253906 74.515625 28.214844 75.042969 29.203125 C 75.574219 30.191406 76.050781 31.203125 76.480469 32.238281 C 76.910156 33.273438 77.285156 34.328125 77.613281 35.402344 C 77.9375 36.472656 78.210938 37.5625 78.429688 38.660156 C 78.648438 39.757812 78.8125 40.867188 78.921875 41.984375 C 79.03125 43.097656 79.085938 44.214844 79.085938 45.335938 Z M 79.085938 45.335938"/></g><path fill-opacity=".133" d="M 45.089844 25.957031 C 44.609375 25.957031 44.128906 26.140625 43.761719 26.511719 L 26.90625 43.363281 C 26.535156 43.734375 26.351562 44.214844 26.351562 44.695312 C 26.351562 45.175781 26.382812 45.417969 26.90625 45.417969 L 31.289062 45.417969 L 31.289062 63.175781 C 31.289062 64.289062 32.183594 65.179688 33.296875 65.179688 L 39.433594 65.179688 C 40.347656 65.179688 41.082031 64.445312 41.082031 63.535156 L 41.082031 57.183594 C 41.082031 56.113281 41.941406 55.253906 43.007812 55.253906 L 47.171875 55.253906 C 48.242188 55.253906 49.101562 56.113281 49.101562 57.183594 L 49.101562 63.535156 C 49.101562 64.445312 49.835938 65.179688 50.746094 65.179688 L 56.886719 65.179688 C 57.996094 65.179688 58.890625 64.289062 58.890625 63.175781 L 58.890625 45.417969 L 63.277344 45.417969 C 63.796875 45.417969 63.828125 45.175781 63.828125 44.695312 C 63.828125 44.214844 63.644531 43.734375 63.277344 43.363281 L 46.421875 26.511719 C 46.050781 26.140625 45.570312 25.957031 45.089844 25.957031 Z M 45.089844 25.957031"/><path fill="#fefefe" d="M 44.628906 25.496094 C 44.148438 25.496094 43.667969 25.679688 43.296875 26.046875 L 26.441406 42.902344 C 26.074219 43.269531 25.890625 43.75 25.890625 44.234375 C 25.890625 44.714844 25.921875 44.953125 26.441406 44.953125 L 30.828125 44.953125 L 30.828125 62.714844 C 30.828125 63.824219 31.722656 64.71875 32.832031 64.71875 L 38.972656 64.71875 C 39.882812 64.71875 40.617188 63.984375 40.617188 63.074219 L 40.617188 56.71875 C 40.617188 55.652344 41.476562 54.789062 42.546875 54.789062 L 46.710938 54.789062 C 47.777344 54.789062 48.636719 55.652344 48.636719 56.71875 L 48.636719 63.074219 C 48.636719 63.984375 49.371094 64.71875 50.285156 64.71875 L 56.421875 64.71875 C 57.535156 64.71875 58.429688 63.824219 58.429688 62.714844 L 58.429688 44.953125 L 62.8125 44.953125 C 63.335938 44.953125 63.367188 44.714844 63.367188 44.234375 C 63.367188 43.75 63.183594 43.269531 62.8125 42.902344 L 45.957031 26.046875 C 45.589844 25.679688 45.109375 25.496094 44.628906 25.496094 Z M 44.628906 25.496094"/></svg>