<svg xmlns="http://www.w3.org/2000/svg" xmlns:xlink="http://www.w3.org/1999/xlink" zoomAndPan="magnify" preserveAspectRatio="xMidYMid meet" version="1.0" viewBox="14.04 13.09 43.54 32.53"><defs><clipPath id="5758a10ad4"><path d="M 14.035156 13.09375 L 57.511719 13.09375 L 57.511719 45.328125 L 14.035156 45.328125 Z M 14.035156 13.09375 " clip-rule="nonzero"/></clipPath></defs><g clip-path="url(#5758a10ad4)"><path fill="#fefefe" d="M 35.28125 40.695312 L 35.785156 45.621094 L 36.285156 40.695312 C 36.601562 37.609375 39.039062 35.171875 42.125 34.855469 L 45.527344 34.507812 C 45.667969 34.9375 45.765625 35.390625 45.8125 35.851562 L 46.3125 40.777344 L 46.816406 35.851562 C 47.128906 32.765625 49.570312 30.328125 52.65625 30.011719 L 57.578125 29.511719 L 52.65625 29.007812 C 49.570312 28.695312 47.128906 26.253906 46.816406 23.167969 L 46.3125 18.246094 L 45.8125 23.167969 C 45.773438 23.527344 45.707031 23.875 45.617188 24.214844 L 42.128906 23.859375 C 39.042969 23.542969 36.601562 21.101562 36.289062 18.015625 L 35.785156 13.09375 L 35.28125 18.015625 C 34.96875 21.101562 32.527344 23.542969 29.441406 23.859375 L 26.039062 24.203125 C 25.925781 23.820312 25.847656 23.421875 25.804688 23.015625 L 25.304688 18.089844 L 24.800781 23.015625 C 24.753906 23.480469 24.660156 23.929688 24.519531 24.359375 C 23.738281 26.785156 21.582031 28.585938 18.960938 28.855469 L 14.039062 29.355469 L 18.960938 29.859375 C 21.582031 30.125 23.738281 31.925781 24.519531 34.355469 C 24.65625 34.785156 24.753906 35.234375 24.800781 35.699219 L 25.304688 40.621094 L 25.804688 35.699219 C 25.847656 35.289062 25.925781 34.894531 26.039062 34.507812 L 29.441406 34.855469 C 32.527344 35.171875 34.96875 37.609375 35.28125 40.695312 Z M 39.96875 30.015625 C 42.472656 30.269531 44.554688 31.925781 45.414062 34.1875 L 42.125 33.851562 C 39.621094 33.597656 37.542969 31.941406 36.679688 29.679688 Z M 39.96875 29.011719 L 36.570312 29.355469 C 37.351562 26.929688 39.503906 25.128906 42.125 24.863281 L 45.527344 24.515625 C 44.746094 26.941406 42.589844 28.742188 39.96875 29.011719 Z M 26.144531 24.527344 L 29.441406 24.863281 C 32.003906 25.125 34.117188 26.847656 34.941406 29.191406 L 31.644531 28.855469 C 29.082031 28.59375 26.96875 26.867188 26.144531 24.527344 Z M 31.644531 29.859375 L 34.941406 29.523438 C 34.117188 31.867188 32.003906 33.589844 29.441406 33.851562 L 26.144531 34.1875 C 26.96875 31.84375 29.082031 30.121094 31.644531 29.859375 Z M 31.644531 29.859375 " fill-opacity="1" fill-rule="nonzero"/></g></svg>