<svg xmlns="http://www.w3.org/2000/svg" role="img" viewBox="475.86 260.61 72.22 54.47"><defs><clipPath id="a"><path d="M477.22266 262.01172h69.71875v51.72656h-69.71875zm0 0"/></clipPath></defs><g clip-path="url(#a)"><path fill="#fefefe" d="M511.16797 306.11328l.80078 7.86328.80469-7.86328c.5-4.92969 4.39843-8.82812 9.32812-9.33203l5.4336-.55469c.22265.6875.3789 1.40625.45312 2.14844l.80078 7.86719.80469-7.86719c.5-4.92969 4.39844-8.82422 9.32813-9.32813l7.86718-.80078-7.86718-.80468c-4.9297-.50391-8.82813-4.39844-9.32813-9.32813l-.80469-7.86719-.80078 7.8672c-.0586.5703-.16406 1.1289-.3086 1.66796l-5.57812-.57031c-4.92968-.5-8.82422-4.39844-9.32812-9.32813l-.80078-7.86719-.8047 7.8672c-.5 4.92968-4.39843 8.82812-9.32812 9.32812l-5.4375.55469c-.17968-.60938-.30468-1.2461-.37109-1.89844L495.22656 270l-.80078 7.86719c-.07422.74219-.23047 1.46094-.45312 2.14844-1.25 3.875-4.69141 6.7539-8.875 7.17968l-7.8672.80469 7.86329.80078c4.1875.42578 7.6289 3.30078 8.8789 7.17969.22266.6875.375 1.40625.45313 2.14844l.80078 7.86718.80078-7.86718c.06641-.65235.19532-1.28907.375-1.89844l5.4375.55469c4.9297.5 8.82422 4.39843 9.32813 9.32812zm7.48828-17.0664c4 .41015 7.32031 3.05078 8.69922 6.66796l-5.2539-.53515c-4-.41016-7.32423-3.05078-8.69923-6.66797zm0-1.60157l-5.4336.55469c1.25-3.8789 4.69141-6.75781 8.87891-7.1836l5.4336-.55468c-1.25 3.8789-4.69141 6.75781-8.87891 7.1836zm-22.08594-7.16406l5.26563.53516c4.09375.41796 7.46875 3.17578 8.78906 6.91796l-5.26953-.53906c-4.08985-.41406-7.46485-3.17187-8.78516-6.91406zm8.78906 8.51953l5.26563-.53906c-1.3164 3.74219-4.69531 6.5-8.78906 6.91797l-5.26563.53515c1.32031-3.74218 4.69531-6.49609 8.78906-6.91406zm0 0"/></g></svg>